<svg id="Layer_3" height="512" viewBox="0 0 64 64" width="512" xmlns="http://www.w3.org/2000/svg" data-name="Layer 3"><path d="m50.515 7.143-10-6a1 1 0 0 0 -.515-.143h-16a1 1 0 0 0 -.515.143l-10 6a1 1 0 0 0 -.485.857v50a1 1 0 0 0 .293.707l4 4a1 1 0 0 0 .707.293h28a1 1 0 0 0 .707-.293l4-4a1 1 0 0 0 .293-.707v-50a1 1 0 0 0 -.485-.857zm-5.515 35.857h-26v-2h26zm0-4h-26v-6h26zm-26 6h5v16h-5zm7 0h12v16h-12zm14 0h5v16h-5zm-15.723-42h15.446l5.277 3.166v24.834h-26v-24.834zm-9.277 5.566 2-1.2v52.22l-2-2zm34 49.02-2 2v-52.22l2 1.2z"/><path d="m32 24a6 6 0 0 0 3.6-10.8l-1.2 1.6a4 4 0 1 1 -4.8 0l-1.2-1.6a6 6 0 0 0 3.6 10.8z"/><path d="m31 10h2v6h-2z"/><path d="m37 35h2v2h-2z"/><path d="m41 35h2v2h-2z"/><path d="m32 48a4 4 0 1 0 4 4 4 4 0 0 0 -4-4zm0 6a2 2 0 1 1 2-2 2 2 0 0 1 -2 2z"/></svg>