<?xml version="1.0" encoding="iso-8859-1"?>
<!-- Generator: Adobe Illustrator 19.0.0, SVG Export Plug-In . SVG Version: 6.00 Build 0)  -->
<svg version="1.1" id="Capa_1" xmlns="http://www.w3.org/2000/svg" xmlns:xlink="http://www.w3.org/1999/xlink" x="0px" y="0px"
	 viewBox="0 0 512 512" style="enable-background:new 0 0 512 512;" xml:space="preserve">
<g>
	<g>
		<path d="M484.5,94.5h20c4.142,0,7.5-3.358,7.5-7.5V7.5c0-4.142-3.358-7.5-7.5-7.5H108.167c-4.142,0-7.5,3.358-7.5,7.5
			s3.358,7.5,7.5,7.5H116v22.5c0,4.142,3.358,7.5,7.5,7.5h265c4.142,0,7.5-3.358,7.5-7.5V15h101v64.5h-12.5
			c-15.164,0-27.5,12.336-27.5,27.5c0,7.342,2.861,14.247,8.057,19.443c5.195,5.195,12.101,8.057,19.443,8.057H497v243h-12.5
			c-15.164,0-27.5,12.336-27.5,27.5c0,7.342,2.861,14.247,8.057,19.443c5.195,5.195,12.101,8.057,19.443,8.057H497V497H396v-22.5
			c0-4.142-3.358-7.5-7.5-7.5h-36c-4.142,0-7.5,3.358-7.5,7.5c0,4.142,3.358,7.5,7.5,7.5H381v15H131v-15h189
			c4.142,0,7.5-3.358,7.5-7.5c0-4.142-3.358-7.5-7.5-7.5H123.5c-4.142,0-7.5,3.358-7.5,7.5V497H15v-64.5h12.5
			c7.343,0,14.248-2.861,19.444-8.057C52.139,419.247,55,412.342,55,405c0-15.164-12.336-27.5-27.5-27.5H15v-243h12.5
			c7.343,0,14.248-2.861,19.444-8.057C52.139,121.247,55,114.342,55,107c0-15.164-12.336-27.5-27.5-27.5H15V15h61
			c4.142,0,7.5-3.358,7.5-7.5S80.142,0,76,0H7.5C3.358,0,0,3.358,0,7.5V87c0,4.142,3.358,7.5,7.5,7.5h20
			c6.893,0,12.5,5.607,12.5,12.5c0,3.336-1.301,6.475-3.663,8.837s-5.5,3.663-8.837,3.663h-20c-4.142,0-7.5,3.358-7.5,7.5v258
			c0,4.142,3.358,7.5,7.5,7.5h20c6.893,0,12.5,5.607,12.5,12.5c0,3.336-1.301,6.475-3.663,8.837s-5.5,3.663-8.837,3.663h-20
			c-4.142,0-7.5,3.358-7.5,7.5v79.5c0,4.142,3.358,7.5,7.5,7.5h497c4.142,0,7.5-3.358,7.5-7.5V425c0-4.142-3.358-7.5-7.5-7.5h-20
			c-3.336,0-6.475-1.301-8.836-3.663C473.301,411.475,472,408.336,472,405c0-6.893,5.607-12.5,12.5-12.5h20
			c4.142,0,7.5-3.358,7.5-7.5V127c0-4.142-3.358-7.5-7.5-7.5h-20c-3.336,0-6.475-1.301-8.836-3.663
			C473.301,113.475,472,110.336,472,107C472,100.107,477.607,94.5,484.5,94.5z M381,30H131V15h250V30z"/>
	</g>
</g>
<g>
	<g>
		<path d="M48.5,23.5C36.093,23.5,26,33.593,26,46s10.093,22.5,22.5,22.5S71,58.407,71,46S60.907,23.5,48.5,23.5z M48.5,53.5
			c-4.136,0-7.5-3.364-7.5-7.5s3.364-7.5,7.5-7.5S56,41.864,56,46S52.636,53.5,48.5,53.5z"/>
	</g>
</g>
<g>
	<g>
		<path d="M463.5,23.5C451.093,23.5,441,33.593,441,46s10.093,22.5,22.5,22.5c12.407,0,22.5-10.093,22.5-22.5
			S475.907,23.5,463.5,23.5z M463.5,53.5c-4.136,0-7.5-3.364-7.5-7.5s3.364-7.5,7.5-7.5s7.5,3.364,7.5,7.5S467.636,53.5,463.5,53.5z
			"/>
	</g>
</g>
<g>
	<g>
		<path d="M48.5,444.5C36.093,444.5,26,454.593,26,467c0,12.407,10.093,22.5,22.5,22.5S71,479.407,71,467
			C71,454.593,60.907,444.5,48.5,444.5z M48.5,474.5c-4.136,0-7.5-3.364-7.5-7.5s3.364-7.5,7.5-7.5s7.5,3.364,7.5,7.5
			S52.636,474.5,48.5,474.5z"/>
	</g>
</g>
<g>
	<g>
		<path d="M463.5,444.5c-12.407,0-22.5,10.093-22.5,22.5c0,12.407,10.093,22.5,22.5,22.5c12.407,0,22.5-10.093,22.5-22.5
			C486,454.593,475.907,444.5,463.5,444.5z M463.5,474.5c-4.136,0-7.5-3.364-7.5-7.5s3.364-7.5,7.5-7.5s7.5,3.364,7.5,7.5
			S467.636,474.5,463.5,474.5z"/>
	</g>
</g>
<g>
	<g>
		<path d="M386,118.5H191.667c-4.142,0-7.5,3.358-7.5,7.5c0,4.142,3.358,7.5,7.5,7.5H378.5v245h-245v-245H160
			c4.142,0,7.5-3.358,7.5-7.5c0-4.142-3.358-7.5-7.5-7.5h-34c-4.142,0-7.5,3.358-7.5,7.5v260c0,4.142,3.358,7.5,7.5,7.5h260
			c4.142,0,7.5-3.358,7.5-7.5V126C393.5,121.858,390.142,118.5,386,118.5z"/>
	</g>
</g>
<g>
	<g>
		<path d="M436,153.834c4.142,0,7.5-3.358,7.5-7.5c0-4.142-3.358-7.5-7.5-7.5h-12.5V122.5H436c4.142,0,7.5-3.358,7.5-7.5
			c0-4.142-3.358-7.5-7.5-7.5h-12.5V96c0-4.142-3.358-7.5-7.5-7.5h-11.5V76c0-4.142-3.358-7.5-7.5-7.5c-4.142,0-7.5,3.358-7.5,7.5
			v12.5h-16.333V76c0-4.142-3.358-7.5-7.5-7.5c-4.142,0-7.5,3.358-7.5,7.5v12.5h-16.333V76c0-4.142-3.358-7.5-7.5-7.5
			c-4.142,0-7.5,3.358-7.5,7.5v12.5H310.5V76c0-4.142-3.358-7.5-7.5-7.5c-4.142,0-7.5,3.358-7.5,7.5v12.5h-16.333V76
			c0-4.142-3.358-7.5-7.5-7.5c-4.142,0-7.5,3.358-7.5,7.5v12.5h-16.333V76c0-4.142-3.358-7.5-7.5-7.5c-4.142,0-7.5,3.358-7.5,7.5
			v12.5H216.5V76c0-4.142-3.358-7.5-7.5-7.5c-4.142,0-7.5,3.358-7.5,7.5v12.5h-16.333V76c0-4.142-3.358-7.5-7.5-7.5
			c-4.142,0-7.5,3.358-7.5,7.5v12.5h-16.333V76c0-4.142-3.358-7.5-7.5-7.5c-4.142,0-7.5,3.358-7.5,7.5v12.5H122.5V76
			c0-4.142-3.358-7.5-7.5-7.5c-4.142,0-7.5,3.358-7.5,7.5v12.5H96c-4.142,0-7.5,3.358-7.5,7.5v11.5H76c-4.142,0-7.5,3.358-7.5,7.5
			c0,4.142,3.358,7.5,7.5,7.5h12.5v16.333H76c-4.142,0-7.5,3.358-7.5,7.5c0,4.142,3.358,7.5,7.5,7.5h12.5v16.333H76
			c-4.142,0-7.5,3.358-7.5,7.5c0,4.142,3.358,7.5,7.5,7.5h12.5V201.5H76c-4.142,0-7.5,3.358-7.5,7.5c0,4.142,3.358,7.5,7.5,7.5h12.5
			v16.333H76c-4.142,0-7.5,3.358-7.5,7.5c0,4.142,3.358,7.5,7.5,7.5h12.5v16.333H76c-4.142,0-7.5,3.358-7.5,7.5
			c0,4.142,3.358,7.5,7.5,7.5h12.5V295.5H76c-4.142,0-7.5,3.358-7.5,7.5c0,4.142,3.358,7.5,7.5,7.5h12.5v16.333H76
			c-4.142,0-7.5,3.358-7.5,7.5c0,4.142,3.358,7.5,7.5,7.5h12.5v16.333H76c-4.142,0-7.5,3.358-7.5,7.5c0,4.142,3.358,7.5,7.5,7.5
			h12.5V389.5H76c-4.142,0-7.5,3.358-7.5,7.5c0,4.142,3.358,7.5,7.5,7.5h12.5V416c0,4.142,3.358,7.5,7.5,7.5h11.5V436
			c0,4.142,3.358,7.5,7.5,7.5c4.142,0,7.5-3.358,7.5-7.5v-12.5h16.333V436c0,4.142,3.358,7.5,7.5,7.5c4.142,0,7.5-3.358,7.5-7.5
			v-12.5h16.333V436c0,4.142,3.358,7.5,7.5,7.5c4.142,0,7.5-3.358,7.5-7.5v-12.5H201.5V436c0,4.142,3.358,7.5,7.5,7.5
			c4.142,0,7.5-3.358,7.5-7.5v-12.5h16.333V436c0,4.142,3.358,7.5,7.5,7.5c4.142,0,7.5-3.358,7.5-7.5v-12.5h16.333V436
			c0,4.142,3.358,7.5,7.5,7.5c4.142,0,7.5-3.358,7.5-7.5v-12.5H295.5V436c0,4.142,3.358,7.5,7.5,7.5c4.142,0,7.5-3.358,7.5-7.5
			v-12.5h16.333V436c0,4.142,3.358,7.5,7.5,7.5c4.142,0,7.5-3.358,7.5-7.5v-12.5h16.333V436c0,4.142,3.358,7.5,7.5,7.5
			c4.142,0,7.5-3.358,7.5-7.5v-12.5H389.5V436c0,4.142,3.358,7.5,7.5,7.5c4.142,0,7.5-3.358,7.5-7.5v-12.5H416
			c4.142,0,7.5-3.358,7.5-7.5v-11.5H436c4.142,0,7.5-3.358,7.5-7.5c0-4.142-3.358-7.5-7.5-7.5h-12.5v-16.333H436
			c4.142,0,7.5-3.358,7.5-7.5c0-4.142-3.358-7.5-7.5-7.5h-12.5v-16.333H436c4.142,0,7.5-3.358,7.5-7.5c0-4.142-3.358-7.5-7.5-7.5
			h-12.5V310.5H436c4.142,0,7.5-3.358,7.5-7.5c0-4.142-3.358-7.5-7.5-7.5h-12.5v-16.333H436c4.142,0,7.5-3.358,7.5-7.5
			c0-4.142-3.358-7.5-7.5-7.5h-12.5v-16.333H436c4.142,0,7.5-3.358,7.5-7.5c0-4.142-3.358-7.5-7.5-7.5h-12.5V216.5H436
			c4.142,0,7.5-3.358,7.5-7.5c0-4.142-3.358-7.5-7.5-7.5h-12.5v-16.333H436c4.142,0,7.5-3.358,7.5-7.5c0-4.142-3.358-7.5-7.5-7.5
			h-12.5v-16.333H436z M408.5,408.5h-305v-305h305V408.5z"/>
	</g>
</g>
<g>
	<g>
		<path d="M249.417,192.85h-18.5v-31h18.5c4.142,0,7.5-3.358,7.5-7.5c0-4.142-3.358-7.5-7.5-7.5h-26c-4.142,0-7.5,3.358-7.5,7.5v46
			c0,4.142,3.358,7.5,7.5,7.5h26c4.142,0,7.5-3.358,7.5-7.5C256.917,196.208,253.559,192.85,249.417,192.85z"/>
	</g>
</g>
<g>
	<g>
		<path d="M294.208,146.85h-26c-4.142,0-7.5,3.358-7.5,7.5v46c0,4.142,3.358,7.5,7.5,7.5c4.142,0,7.5-3.358,7.5-7.5v-15.184h18.5
			c4.142,0,7.5-3.358,7.5-7.5V154.35C301.708,150.208,298.35,146.85,294.208,146.85z M286.708,170.166h-11v-8.316h11V170.166z"/>
	</g>
</g>
<g>
	<g>
		<path d="M339,146.85c-4.142,0-7.5,3.358-7.5,7.5v38.5h-11v-38.5c0-4.142-3.358-7.5-7.5-7.5c-4.142,0-7.5,3.358-7.5,7.5v46
			c0,4.142,3.358,7.5,7.5,7.5h26c4.142,0,7.5-3.358,7.5-7.5v-46C346.5,150.208,343.142,146.85,339,146.85z"/>
	</g>
</g>
<g>
	<g>
		<path d="M207.817,349.94l-44.981-41.185c-2.193-2.007-5.364-2.528-8.087-1.332c-2.721,1.198-4.478,3.891-4.478,6.864v41.185
			c0,4.142,3.358,7.5,7.5,7.5h44.981c3.094,0,5.87-1.899,6.991-4.783C210.864,355.306,210.099,352.03,207.817,349.94z
			 M165.271,347.972v-16.649l18.184,16.649H165.271z"/>
	</g>
</g>
<g>
</g>
<g>
</g>
<g>
</g>
<g>
</g>
<g>
</g>
<g>
</g>
<g>
</g>
<g>
</g>
<g>
</g>
<g>
</g>
<g>
</g>
<g>
</g>
<g>
</g>
<g>
</g>
<g>
</g>
</svg>
